/* XPM */
static char *_76d6a512ab64f8ca009f4362de3f1faW0AA8deSdhEN4p2t[] = {
/* columns rows colors chars-per-pixel */
"32 32 109 2 ",
"   c #26AF15",
".  c #25AB15",
"X  c #239D14",
"o  c #229414",
"O  c #26AC15",
"+  c #239914",
"@  c #24A414",
"#  c #26B015",
"$  c #26AE15",
"%  c #229614",
"&  c #249F15",
"*  c #239814",
"=  c #218F14",
"-  c #208913",
";  c #239515",
":  c #24A115",
">  c #249F14",
",  c #25AC15",
"<  c #25AA15",
"1  c #239A15",
"2  c #239B14",
"3  c #218D14",
"4  c #239C14",
"5  c #239C15",
"6  c #239815",
"7  c #239A14",
"8  c #25A915",
"9  c #24A015",
"0  c #229314",
"q  c #24A215",
"w  c #25A715",
"e  c #249C15",
"r  c #229114",
"t  c #218C14",
"y  c #239415",
"u  c #229514",
"i  c #249D15",
"p  c #24A214",
"a  c #218B14",
"s  c #26AD15",
"d  c #229214",
"f  c #25A615",
"g  c #25A515",
"h  c #218A13",
"j  c #24A515",
"k  c #239915",
"l  c #24A415",
"z  c #24A315",
"x  c #239315",
"c  c #239B15",
"v  c #229714",
"b  c #249E15",
"n  c #239614",
"m  c #249E14",
"M  c #218814",
"N  c #208413",
"B  c #229014",
"V  c #239715",
"C  c #25A815",
"Z  c #239714",
"A  c #239514",
"S  c #228F14",
"D  c #249A15",
"F  c #239615",
"G  c #25A315",
"H  c #24A014",
"J  c #249B15",
"K  c #26AA15",
"L  c #24A314",
"P  c #1F8313",
"I  c #24A114",
"U  c #249915",
"Y  c #218A14",
"T  c #218E14",
"R  c #208813",
"E  c #25A415",
"W  c #26AC16",
"Q  c #208713",
"!  c #249D14",
"~  c #218B13",
"^  c #1F8213",
"/  c #208513",
"(  c #26AB15",
")  c #239E14",
"_  c #229215",
"`  c #219014",
"'  c #208714",
"]  c #208314",
"[  c #27B216",
"{  c #25A015",
"}  c #208213",
"|  c #1E7A13",
" . c #228E14",
".. c #208313",
"X. c #208514",
"o. c #218D13",
"O. c #25A215",
"+. c #228D14",
"@. c #218C13",
"#. c #208614",
"$. c #229015",
"%. c #26A915",
"&. c #218914",
"*. c #239414",
"=. c #208613",
"-. c #25A115",
";. c #1F8013",
":. c #26AE16",
">. c white",
/* pixels */
"  .   X o O X + @ # #     $ % & * * = - ; : > & & . $ ,         ",
"< 1 2 3 4 $ 5 6 * 7 X 8   : ; 9 1 % = + 0 q 2 0 $ $ w = 8   O $ ",
"2 e r 0 e 2 * o - o t & : 9 y u i > & p & a i 7 $ s w d e < % + ",
"0 u u X w f g 2 h p j f k u = l : z w 0 u * g < w = 8 + 6 u t x ",
"g g p s O # # @ 0 c o z v 3 w f b n * m .   8 l w M * u i N B V ",
"# . C f = 8 . k Z u A 7 v o 9 o i N S 3 q < & D i F G z H o j < ",
"O o 3 r d 9 Z e 1 g V J l Z K z H o j 2 : 1 2 a % i . 8 z   L < ",
"$ > o B o Z 3 * V P S 6 d k * 7 < #   . s H I m o b < & U b k l ",
"$ p C C > Y * u n t i T o r R B u   : e f = j f d E k 2 a + b < ",
"f T * < a 0 G 4 u 4 w f j d X p i 9 9 y o V 6 u 5 z * L > s O   ",
"< u o o k @   s s $ $ s > o . * g + + = g : g b v u 8 < z   #   ",
"  l W 7 Z 8 C < >   : 1 0 0 o o 5 C g C   . O f = * $ c 6 Z 7 C ",
"< > $ 5 F r Q = Y ! n J X i d > p m 3 r u n r d a e 2 * B R 0 : ",
"j 3 2 u Z 7 r M a n u = w < D q ! ~ ^ h d F 0 B ! w f f u X C $ ",
"< 7 9 * - X @ F = o > q b I b a b d o 6 o 0 + 8 # # . >     z C ",
"# m 1 4 B 9 u b / S + I g d d u I C l ( l ) 8 #   O g t q L _ Z ",
"f + V h r : m ` Q L < % ' L 7 k o 0 C # q 1 .   8 u 0 1 g N ] n ",
"* 4 ~ T d < . u * w f T M 7 u n + N d @ a ; C q k u Q 0 4 r + [ ",
"s s C O > w # X { f j L * G 4 d m m r } | A z + V ~ t 7 < O O   ",
"  8 * > = Z C 5 D g # : A . $ d 2 ) e  .r b e X Q ..X.> l       ",
"# p o.3 S O.n r r Y 8 Z B > w o e o 0 v > g % 4 ~ +.; o J C     ",
"< ) w 7  .& l u d u n T @.t #.} : : 6 d * 0 @.3 S : 0 B * .     ",
"j 3 z 4 $.' 2 = n 4 Z F T u u 0 %.  g Q 0 : I 4 B V r o p $ O   ",
"< n 9 3 ; &.M a b n N o O q k 7 f < H ) w ( g 7 0 Z u t G f +   ",
"# 0 V 0 o Y * o *.o =.r g + V @.0 B u s < w f i o 1 o b a -.2   ",
"# H : i r ' 9 X b a T 6 k 4 ~ h &.M / k 9 u J b l w 0 u + g 8   ",
"> f s 9 A d i % 7 / % ! 4 O C f % ` B * E = 0 u   s > w w I #   ",
"= Z g + V R 0 : L 7 I m 3 & o T S a p w 1 n + Y q j J V k o   . ",
"+ q e 4 @.~ t m 1 u 0 d u O.Q =.;.S 9 * e Y 3 n 9 a u N b g > % ",
"e f $ $ 7 r G 0 d ! H ; 6 z ' 3 B * C = Z > + I % d 7 Z D b F n ",
":.> * m = o 8 + y Z l n V o ; G C j : C .   I C H q 1 2 a + i 2 ",
"# > R 3 0 : n ` n & k 7 =.- Z C # e ; d q # 0 o . O : I X s , # "
};
