/* XPM */
static char *fec08648346b4514dafec3ff127b1efdF7AmpG2xUM7ogBgk[] = {
/* columns rows colors chars-per-pixel */
"32 32 16 1 ",
"  c #8B9150",
". c #2E1E22",
"X c #353535",
"o c #5C2E00",
"O c gray29",
"+ c gray33",
"@ c #615C7C",
"# c #928A8C",
"$ c #979799",
"% c #BDA0B8",
"& c #EDB2E0",
"* c #C9C9CB",
"= c #D9D9DD",
"- c #FFCDEC",
"; c #EBEBED",
": c white",
/* pixels */
"             XXXXXXXXX          ",
"           XXOO++OOOOOXX        ",
"          XO++@@@+OXXOOOX       ",
"         XO++@@@@@++OXXX        ",
"        XO++@@@@@@@++OX         ",
"        X%%+@@@@@@@+%%X         ",
"      XXX%&&&-----&&&%XXX       ",
"    XXOOO++&-------&++OOOXX     ",
"   XOOO++@@@@@@@@@@@@@++OOOX    ",
"  XOO+++@@@@@@+++@@@@@@+++OOX   ",
"   XXOO++++OXXXXXXXO++++OOXX    ",
"     XXXXXXX:::::::XXXXXXX      ",
"      $;:::..:::::..:::;$       ",
"      $;:::=.:::::=.:::;$       ",
"      $;:::#.:::::#.:::;$       ",
"      $;:::..:::::..:::;$       ",
"      $;:::oo:::::oo:::;$       ",
"      $;:::::::::::::::;$       ",
"      $;;:::::::::::::;;$       ",
"      $=;$::*:::::*::$;=$       ",
"      $*;$::$:::::$::$;*$       ",
"       $=$;;$:::::$;;$=$        ",
"       $*=$$;;;;;;;$$=*$ $$$    ",
"        $*=;;;;;;;;;=*$$$***$   ",
"        $**=;;;;;;;=******$$$$  ",
"         $***=====*******$      ",
"          $*************$       ",
"           $$*********$$        ",
"             $$$$$$$$$          ",
"                                ",
"                                ",
"                                "
};
